# xmcd
#
# Track frame offsets:
#	150
#	26440
#	61506
#	113435
#	137948
#	174196
#	206459
#	252768
#	265599
#
# Disc length: 3913 seconds
# Revision: 0
# Processed by: cddbd v1.5.2PL0 Copyright (c) Steve Scherf et al.
# Submitted via: dBpowerAMP V12.0
#
DISCID=670f4709
DTITLE=Jeff Strahan - Live At Sealy Flats
DYEAR=2012
DGENRE=Blues
TTITLE0=Love To Be A Hippy
TTITLE1=Cooler Than Cool
TTITLE2=Dirty Dishes
TTITLE3=Every Day's A Holiday
TTITLE4=Hope and Faith
TTITLE5=Love Me Right Now
TTITLE6=Texas Flood
TTITLE7=She Only Hates Me
TTITLE8=Thrill Is Gone
EXTD=
EXTT0=
EXTT1=
EXTT2=
EXTT3=
EXTT4=
EXTT5=
EXTT6=
EXTT7=
EXTT8=
PLAYORDER=
